<svg width="300" height="300" viewBox="0 0 300 300" fill="none" xmlns="http://www.w3.org/2000/svg">
<g clip-path="url(#clip0_29_155)">
<path d="M149.98 198.5L207.48 63H231.23L149.98 246.75L68.7305 63H92.4805L149.98 198.5Z" fill="black"/>
<path d="M152.722 166.2V145.68H214.822C215.182 155.28 214.042 164.34 211.402 172.86C208.882 181.38 204.862 188.94 199.342 195.54C193.942 202.02 187.222 207.12 179.182 210.84C171.142 214.56 161.962 216.42 151.642 216.42C141.922 216.42 132.922 214.8 124.642 211.56C116.482 208.32 109.342 203.76 103.222 197.88C97.2218 192 92.5418 184.98 89.1818 176.82C85.9418 168.66 84.3218 159.72 84.3218 150C84.3218 140.28 86.0018 131.4 89.3618 123.36C92.8418 115.2 97.6418 108.24 103.762 102.48C109.882 96.72 117.082 92.28 125.362 89.16C133.642 86.04 142.642 84.48 152.362 84.48C161.002 84.48 168.742 85.68 175.582 88.08C182.542 90.48 188.662 93.84 193.942 98.16C199.342 102.36 203.962 107.4 207.802 113.28L185.842 126.06C182.722 120.54 178.342 116.1 172.702 112.74C167.182 109.26 160.402 107.52 152.362 107.52C144.802 107.52 137.902 109.26 131.662 112.74C125.422 116.1 120.442 120.96 116.722 127.32C113.122 133.68 111.322 141.24 111.322 150C111.322 158.64 113.122 166.26 116.722 172.86C120.322 179.34 125.182 184.38 131.302 187.98C137.542 191.58 144.562 193.38 152.362 193.38C157.522 193.38 162.142 192.72 166.222 191.4C170.302 189.96 173.782 187.98 176.662 185.46C179.662 182.94 182.182 180.06 184.222 176.82C186.262 173.58 187.822 170.04 188.902 166.2H152.722Z" fill="#FFA800"/>
<path d="M163 166H186L150 246.5L140 224.5L163 166Z" fill="black"/>
<path d="M136.202 166H114.282L150 246.5L160 224.5L136.202 166Z" fill="black"/>
</g>
<defs>
<clipPath id="clip0_29_155">
<rect width="300" height="300" fill="white"/>
</clipPath>
</defs>
</svg>
